<?xml version="1.0" encoding="utf-8"?>
<!-- Generator: Adobe Illustrator 16.0.0, SVG Export Plug-In . SVG Version: 6.00 Build 0)  -->
<!DOCTYPE svg PUBLIC "-//W3C//DTD SVG 1.1//EN" "http://www.w3.org/Graphics/SVG/1.1/DTD/svg11.dtd">
<svg version="1.1" id="Layer_1" xmlns="http://www.w3.org/2000/svg" xmlns:xlink="http://www.w3.org/1999/xlink" x="0px" y="0px"
	 width="32px" height="32px" viewBox="0 0 32 32" enable-background="new 0 0 32 32" xml:space="preserve">
<path fill="#FC335C" d="M15.827,3.931c-6.636,0-12,5.365-12,12c0,6.636,5.364,12,12,12s12-5.364,12-12
	C27.855,9.295,22.463,3.931,15.827,3.931z M19.47,10.312l-5.816,11.435c-0.028,0.085-0.113,0.113-0.198,0.113h-1.102
	c-0.169,0-0.254-0.17-0.197-0.311l5.816-11.436c0.029-0.084,0.113-0.113,0.198-0.113h1.13C19.441,10.001,19.555,10.171,19.47,10.312
	z"/>
</svg>
